<svg width="617" height="520" xmlns="http://www.w3.org/2000/svg" version="1.1"><g transform="translate(0, 10)"><g class="links" fill="none" stroke-opacity="0.4"><path d="M5,458.45444534453964C308.5,458.45444534453964,308.5,458.4544453445393,612,458.4544453445393" style="stroke: rgb(59, 85, 201);" stroke-width="83.09110931092097"></path><path d="M5,385.8543871196396C308.5,385.8543871196396,308.5,246.43891448534222,612,246.43891448534222" style="stroke: rgb(59, 85, 201);" stroke-width="62.10900713887904"></path><path d="M5,280.0921472330516C308.5,280.0921472330516,308.5,352.2011543719303,612,352.2011543719303" style="stroke: rgb(77, 162, 120);" stroke-width="129.415472634297"></path><path d="M5,107.6922054579516C308.5,107.6922054579516,308.5,107.6922054579512,612,107.6922054579512" style="stroke: rgb(77, 162, 120);" stroke-width="215.38441091590298"></path></g><g class="nodes" font-family="Arial, Helvetica" font-size="10"><g><rect x="612" y="287.4934180547818" height="212.5065819452185" width="5" fill="#000"></rect><text x="606" y="393.74670902739103" dy="0.35em" text-anchor="end">False</text></g><g><rect x="612" y="-2.8421709430404007e-13" height="277.49341805478207" width="5" fill="#000"></rect><text x="606" y="138.74670902739075" dy="0.35em" text-anchor="end">True</text></g><g><rect x="0" y="354.7998835502001" height="145.2001164497998" width="5" fill="#000"></rect><text x="11" y="427.3999417751" dy="0.35em" text-anchor="start">False</text></g><g><rect x="0" y="1.1368683772161603e-13" height="344.7998835502" width="5" fill="#000"></rect><text x="11" y="172.3999417751001" dy="0.35em" text-anchor="start">True</text></g></g></g></svg>